<?xml version="1.0" encoding="UTF-8" standalone="no"?>
<!-- Created with Inkscape (http://www.inkscape.org/) -->

<svg
   xmlns:dc="http://purl.org/dc/elements/1.1/"
   xmlns:cc="http://creativecommons.org/ns#"
   xmlns:rdf="http://www.w3.org/1999/02/22-rdf-syntax-ns#"
   xmlns:svg="http://www.w3.org/2000/svg"
   xmlns="http://www.w3.org/2000/svg"
   xmlns:sodipodi="http://sodipodi.sourceforge.net/DTD/sodipodi-0.dtd"
   xmlns:inkscape="http://www.inkscape.org/namespaces/inkscape"
   width="744.09448819"
   height="1052.3622047"
   id="svg2"
   version="1.1"
   inkscape:version="0.48.1 "
   sodipodi:docname="scope_icon.svg">
  <defs
     id="defs4" />
  <sodipodi:namedview
     id="base"
     pagecolor="#ffffff"
     bordercolor="#666666"
     borderopacity="1.0"
     inkscape:pageopacity="0.0"
     inkscape:pageshadow="2"
     inkscape:zoom="1.5184886"
     inkscape:cx="387.60816"
     inkscape:cy="500.71946"
     inkscape:document-units="px"
     inkscape:current-layer="layer1"
     showgrid="false"
     inkscape:window-width="1680"
     inkscape:window-height="988"
     inkscape:window-x="-8"
     inkscape:window-y="32"
     inkscape:window-maximized="1">
    <inkscape:grid
       type="xygrid"
       id="grid2985" />
  </sodipodi:namedview>
  <metadata
     id="metadata7">
    <rdf:RDF>
      <cc:Work
         rdf:about="">
        <dc:format>image/svg+xml</dc:format>
        <dc:type
           rdf:resource="http://purl.org/dc/dcmitype/StillImage" />
        <dc:title></dc:title>
      </cc:Work>
    </rdf:RDF>
  </metadata>
  <g
     inkscape:label="Layer 1"
     inkscape:groupmode="layer"
     id="layer1">
    <g
       id="g3785"
       inkscape:export-xdpi="12.041882"
       inkscape:export-ydpi="12.041882">
      <path
         sodipodi:nodetypes="ccccc"
         inkscape:connector-curvature="0"
         id="path2987"
         d="m 180,592.36218 99.53302,-135.3258 54.9835,199.35677 L 404.79193,433.80287 430,592.36218"
         style="fill:none;stroke:#ff2a2a;stroke-width:5;stroke-linecap:butt;stroke-linejoin:miter;stroke-miterlimit:4;stroke-opacity:1;stroke-dasharray:none" />
      <path
         transform="matrix(0.6,0,0,0.6,39.776391,45.703345)"
         d="m 412.25202,688.84283 a 13.170991,13.170991 0 1 1 -26.34199,0 13.170991,13.170991 0 1 1 26.34199,0 z"
         sodipodi:ry="13.170991"
         sodipodi:rx="13.170991"
         sodipodi:cy="688.84283"
         sodipodi:cx="399.08102"
         id="path3757"
         style="fill:#ff0000;fill-opacity:1;fill-rule:nonzero;stroke:#ff2a2a;stroke-width:0;stroke-miterlimit:4;stroke-opacity:1;stroke-dasharray:none;stroke-dashoffset:0"
         sodipodi:type="arc" />
      <path
         sodipodi:type="arc"
         style="fill:#ff0000;fill-opacity:1;fill-rule:nonzero;stroke:#ff2a2a;stroke-width:0;stroke-miterlimit:4;stroke-opacity:1;stroke-dasharray:none;stroke-dashoffset:0"
         id="path3759"
         sodipodi:cx="399.08102"
         sodipodi:cy="688.84283"
         sodipodi:rx="13.170991"
         sodipodi:ry="13.170991"
         d="m 412.25202,688.84283 a 13.170991,13.170991 0 1 1 -26.34199,0 13.170991,13.170991 0 1 1 26.34199,0 z"
         transform="matrix(0.6,0,0,0.6,95.753102,241.29256)" />
      <path
         transform="matrix(0.6,0,0,0.6,165.55936,20.678459)"
         d="m 412.25202,688.84283 a 13.170991,13.170991 0 1 1 -26.34199,0 13.170991,13.170991 0 1 1 26.34199,0 z"
         sodipodi:ry="13.170991"
         sodipodi:rx="13.170991"
         sodipodi:cy="688.84283"
         sodipodi:cx="399.08102"
         id="path3761"
         style="fill:#ff0000;fill-opacity:1;fill-rule:nonzero;stroke:#ff2a2a;stroke-width:0;stroke-miterlimit:4;stroke-opacity:1;stroke-dasharray:none;stroke-dashoffset:0"
         sodipodi:type="arc" />
      <path
         sodipodi:type="arc"
         style="fill:#ff0000;fill-opacity:1;fill-rule:nonzero;stroke:#ff2a2a;stroke-width:0;stroke-miterlimit:4;stroke-opacity:1;stroke-dasharray:none;stroke-dashoffset:0"
         id="path3763"
         sodipodi:cx="399.08102"
         sodipodi:cy="688.84283"
         sodipodi:rx="13.170991"
         sodipodi:ry="13.170991"
         d="m 412.25202,688.84283 a 13.170991,13.170991 0 1 1 -26.34199,0 13.170991,13.170991 0 1 1 26.34199,0 z"
         transform="matrix(0.6,0,0,0.6,190.55139,183.15389)" />
      <path
         transform="matrix(0.6,0,0,0.6,-59.688945,182.07181)"
         d="m 412.25202,688.84283 a 13.170991,13.170991 0 1 1 -26.34199,0 13.170991,13.170991 0 1 1 26.34199,0 z"
         sodipodi:ry="13.170991"
         sodipodi:rx="13.170991"
         sodipodi:cy="688.84283"
         sodipodi:cx="399.08102"
         id="path3769"
         style="fill:#ff0000;fill-opacity:1;fill-rule:nonzero;stroke:#ff2a2a;stroke-width:0;stroke-miterlimit:4;stroke-opacity:1;stroke-dasharray:none;stroke-dashoffset:0"
         sodipodi:type="arc" />
    </g>
  </g>
</svg>
